
      <svg xmlns="http://www.w3.org/2000/svg" version="1.1" width="2000" height="1000" style="display: block;"><polygon stroke-linejoin="round" stroke-miterlimit="1" stroke-width="1" points="2296.073486328125,960.255615234375 2092.494140625,1105.3817138671875 2298.7371826171875,1111.9739379882812" style="fill:#7d2878;stroke:#7d2878;"></polygon><polygon stroke-linejoin="round" stroke-miterlimit="1" stroke-width="1" points="2043.580322265625,960.8076171875 2092.494140625,1105.3817138671875 2296.073486328125,960.255615234375" style="fill:#7d2878;stroke:#7d2878;"></polygon><polygon stroke-linejoin="round" stroke-miterlimit="1" stroke-width="1" points="2251.9122314453125,810.0882568359375 2043.580322265625,960.8076171875 2296.073486328125,960.255615234375" style="fill:#7e3a8d;stroke:#7e3a8d;"></polygon><polygon stroke-linejoin="round" stroke-miterlimit="1" stroke-width="1" points="2169.065673828125,786.3839416503906 2043.580322265625,960.8076171875 2251.9122314453125,810.0882568359375" style="fill:#7e3d90;stroke:#7e3d90;"></polygon><polygon stroke-linejoin="round" stroke-miterlimit="1" stroke-width="1" points="2158.8818359375,659.6349792480469 2169.065673828125,786.3839416503906 2251.9122314453125,810.0882568359375" style="fill:#7e3b8e;stroke:#7e3b8e;"></polygon><polygon stroke-linejoin="round" stroke-miterlimit="1" stroke-width="1" points="2008.8474731445312,658.3628234863281 2169.065673828125,786.3839416503906 2158.8818359375,659.6349792480469" style="fill:#7e398c;stroke:#7e398c;"></polygon><polygon stroke-linejoin="round" stroke-miterlimit="1" stroke-width="1" points="2150.698974609375,503.77083563804626 2008.8474731445312,658.3628234863281 2158.8818359375,659.6349792480469" style="fill:#7e4397;stroke:#7e4397;"></polygon><polygon stroke-linejoin="round" stroke-miterlimit="1" stroke-width="1" points="1931.7713623046875,497.94305419921875 2008.8474731445312,658.3628234863281 2150.698974609375,503.77083563804626" style="fill:#7e459a;stroke:#7e459a;"></polygon><polygon stroke-linejoin="round" stroke-miterlimit="1" stroke-width="1" points="2309.35205078125,336.1628875732422 1931.7713623046875,497.94305419921875 2150.698974609375,503.77083563804626" style="fill:#7e3f92;stroke:#7e3f92;"></polygon><polygon stroke-linejoin="round" stroke-miterlimit="1" stroke-width="1" points="2093.1319580078125,335.0029602050781 1931.7713623046875,497.94305419921875 2309.35205078125,336.1628875732422" style="fill:#7e3b8e;stroke:#7e3b8e;"></polygon><polygon stroke-linejoin="round" stroke-miterlimit="1" stroke-width="1" points="2319.28173828125,212.5938720703125 2093.1319580078125,335.0029602050781 2309.35205078125,336.1628875732422" style="fill:#7e388a;stroke:#7e388a;"></polygon><polygon stroke-linejoin="round" stroke-miterlimit="1" stroke-width="1" points="2169.781005859375,212.05813598632812 2093.1319580078125,335.0029602050781 2319.28173828125,212.5938720703125" style="fill:#7e3486;stroke:#7e3486;"></polygon><polygon stroke-linejoin="round" stroke-miterlimit="1" stroke-width="1" points="2296.193359375,51.344879150390625 2169.781005859375,212.05813598632812 2319.28173828125,212.5938720703125" style="fill:#7d3385;stroke:#7d3385;"></polygon><polygon stroke-linejoin="round" stroke-miterlimit="1" stroke-width="1" points="1930.270263671875,64.79446411132812 2169.781005859375,212.05813598632812 2296.193359375,51.344879150390625" style="fill:#7f469b;stroke:#7f469b;"></polygon><polygon stroke-linejoin="round" stroke-miterlimit="1" stroke-width="1" points="2202.961181640625,-106.0579833984375 1930.270263671875,64.79446411132812 2296.193359375,51.344879150390625" style="fill:#7e4498;stroke:#7e4498;"></polygon><polygon stroke-linejoin="round" stroke-miterlimit="1" stroke-width="1" points="2040.959228515625,-106.15045166015625 1930.270263671875,64.79446411132812 2202.961181640625,-106.0579833984375" style="fill:#7f50a6;stroke:#7f50a6;"></polygon><polygon stroke-linejoin="round" stroke-miterlimit="1" stroke-width="1" points="2043.580322265625,960.8076171875 1929.693359375,1111.6992797851562 2092.494140625,1105.3817138671875" style="fill:#7c206f;stroke:#7c206f;"></polygon><polygon stroke-linejoin="round" stroke-miterlimit="1" stroke-width="1" points="1780.0342407226562,935.4609375 1929.693359375,1111.6992797851562 2043.580322265625,960.8076171875" style="fill:#7e3a8d;stroke:#7e3a8d;"></polygon><polygon stroke-linejoin="round" stroke-miterlimit="1" stroke-width="1" points="2169.065673828125,786.3839416503906 1780.0342407226562,935.4609375 2043.580322265625,960.8076171875" style="fill:#7e4398;stroke:#7e4398;"></polygon><polygon stroke-linejoin="round" stroke-miterlimit="1" stroke-width="1" points="1780.2893676757812,785.2138671875 1780.0342407226562,935.4609375 2169.065673828125,786.3839416503906" style="fill:#7e398b;stroke:#7e398b;"></polygon><polygon stroke-linejoin="round" stroke-miterlimit="1" stroke-width="1" points="2008.8474731445312,658.3628234863281 1780.2893676757812,785.2138671875 2169.065673828125,786.3839416503906" style="fill:#7e3a8d;stroke:#7e3a8d;"></polygon><polygon stroke-linejoin="round" stroke-miterlimit="1" stroke-width="1" points="2017.7110595703125,664.9881286621094 1780.2893676757812,785.2138671875 2008.8474731445312,658.3628234863281" style="fill:#86daff;stroke:#86daff;"></polygon><polygon stroke-linejoin="round" stroke-miterlimit="1" stroke-width="1" points="1931.7713623046875,497.94305419921875 2017.7110595703125,664.9881286621094 2008.8474731445312,658.3628234863281" style="fill:#89ffff;stroke:#89ffff;"></polygon><polygon stroke-linejoin="round" stroke-miterlimit="1" stroke-width="1" points="1934.8109130859375,485.6397514343262 2017.7110595703125,664.9881286621094 1931.7713623046875,497.94305419921875" style="fill:#7c1462;stroke:#7c1462;"></polygon><polygon stroke-linejoin="round" stroke-miterlimit="1" stroke-width="1" points="2093.1319580078125,335.0029602050781 1934.8109130859375,485.6397514343262 1931.7713623046875,497.94305419921875" style="fill:#7c1665;stroke:#7c1665;"></polygon><polygon stroke-linejoin="round" stroke-miterlimit="1" stroke-width="1" points="1904.3035888671875,356.53021240234375 1934.8109130859375,485.6397514343262 2093.1319580078125,335.0029602050781" style="fill:#7e3789;stroke:#7e3789;"></polygon><polygon stroke-linejoin="round" stroke-miterlimit="1" stroke-width="1" points="2169.781005859375,212.05813598632812 1904.3035888671875,356.53021240234375 2093.1319580078125,335.0029602050781" style="fill:#7e3587;stroke:#7e3587;"></polygon><polygon stroke-linejoin="round" stroke-miterlimit="1" stroke-width="1" points="1789.37939453125,185.625 1904.3035888671875,356.53021240234375 2169.781005859375,212.05813598632812" style="fill:#7e3d90;stroke:#7e3d90;"></polygon><polygon stroke-linejoin="round" stroke-miterlimit="1" stroke-width="1" points="1930.270263671875,64.79446411132812 1789.37939453125,185.625 2169.781005859375,212.05813598632812" style="fill:#7e3b8e;stroke:#7e3b8e;"></polygon><polygon stroke-linejoin="round" stroke-miterlimit="1" stroke-width="1" points="1849.3167114257812,62.19732666015625 1789.37939453125,185.625 1930.270263671875,64.79446411132812" style="fill:#7f52a8;stroke:#7f52a8;"></polygon><polygon stroke-linejoin="round" stroke-miterlimit="1" stroke-width="1" points="2040.959228515625,-106.15045166015625 1849.3167114257812,62.19732666015625 1930.270263671875,64.79446411132812" style="fill:#7f51a7;stroke:#7f51a7;"></polygon><polygon stroke-linejoin="round" stroke-miterlimit="1" stroke-width="1" points="1868.21484375,-113.98504638671875 1849.3167114257812,62.19732666015625 2040.959228515625,-106.15045166015625" style="fill:#7f499d;stroke:#7f499d;"></polygon><polygon stroke-linejoin="round" stroke-miterlimit="1" stroke-width="1" points="1780.0342407226562,935.4609375 1867.98486328125,1105.7001342773438 1929.693359375,1111.6992797851562" style="fill:#7e3d91;stroke:#7e3d91;"></polygon><polygon stroke-linejoin="round" stroke-miterlimit="1" stroke-width="1" points="1642.5116577148438,935.1379699707031 1867.98486328125,1105.7001342773438 1780.0342407226562,935.4609375" style="fill:#7e3588;stroke:#7e3588;"></polygon><polygon stroke-linejoin="round" stroke-miterlimit="1" stroke-width="1" points="1780.2893676757812,785.2138671875 1642.5116577148438,935.1379699707031 1780.0342407226562,935.4609375" style="fill:#7e3a8d;stroke:#7e3a8d;"></polygon><polygon stroke-linejoin="round" stroke-miterlimit="1" stroke-width="1" points="1855.90673828125,800.6404418945312 1642.5116577148438,935.1379699707031 1780.2893676757812,785.2138671875" style="fill:#7d2272;stroke:#7d2272;"></polygon><polygon stroke-linejoin="round" stroke-miterlimit="1" stroke-width="1" points="2017.7110595703125,664.9881286621094 1855.90673828125,800.6404418945312 1780.2893676757812,785.2138671875" style="fill:#7d2475;stroke:#7d2475;"></polygon><polygon stroke-linejoin="round" stroke-miterlimit="1" stroke-width="1" points="1788.1383056640625,649.9609375 1855.90673828125,800.6404418945312 2017.7110595703125,664.9881286621094" style="fill:#7e388b;stroke:#7e388b;"></polygon><polygon stroke-linejoin="round" stroke-miterlimit="1" stroke-width="1" points="1934.8109130859375,485.6397514343262 1788.1383056640625,649.9609375 2017.7110595703125,664.9881286621094" style="fill:#7e3c8f;stroke:#7e3c8f;"></polygon><polygon stroke-linejoin="round" stroke-miterlimit="1" stroke-width="1" points="1858.1651000976562,487.4248790740967 1788.1383056640625,649.9609375 1934.8109130859375,485.6397514343262" style="fill:#7e3487;stroke:#7e3487;"></polygon><polygon stroke-linejoin="round" stroke-miterlimit="1" stroke-width="1" points="1904.3035888671875,356.53021240234375 1858.1651000976562,487.4248790740967 1934.8109130859375,485.6397514343262" style="fill:#7e3385;stroke:#7e3385;"></polygon><polygon stroke-linejoin="round" stroke-miterlimit="1" stroke-width="1" points="1706.1583862304688,364.9999237060547 1858.1651000976562,487.4248790740967 1904.3035888671875,356.53021240234375" style="fill:#7f50a5;stroke:#7f50a5;"></polygon><polygon stroke-linejoin="round" stroke-miterlimit="1" stroke-width="1" points="1789.37939453125,185.625 1706.1583862304688,364.9999237060547 1904.3035888671875,356.53021240234375" style="fill:#7f51a6;stroke:#7f51a6;"></polygon><polygon stroke-linejoin="round" stroke-miterlimit="1" stroke-width="1" points="1808.498291015625,197.4979248046875 1706.1583862304688,364.9999237060547 1789.37939453125,185.625" style="fill:#7c1462;stroke:#7c1462;"></polygon><polygon stroke-linejoin="round" stroke-miterlimit="1" stroke-width="1" points="1849.3167114257812,62.19732666015625 1808.498291015625,197.4979248046875 1789.37939453125,185.625" style="fill:#7c1462;stroke:#7c1462;"></polygon><polygon stroke-linejoin="round" stroke-miterlimit="1" stroke-width="1" points="1806.9323120117188,35.96405029296875 1808.498291015625,197.4979248046875 1849.3167114257812,62.19732666015625" style="fill:#7c1462;stroke:#7c1462;"></polygon><polygon stroke-linejoin="round" stroke-miterlimit="1" stroke-width="1" points="1868.21484375,-113.98504638671875 1806.9323120117188,35.96405029296875 1849.3167114257812,62.19732666015625" style="fill:#7c1462;stroke:#7c1462;"></polygon><polygon stroke-linejoin="round" stroke-miterlimit="1" stroke-width="1" points="1630.01220703125,-88.76568603515625 1806.9323120117188,35.96405029296875 1868.21484375,-113.98504638671875" style="fill:#7e3e91;stroke:#7e3e91;"></polygon><polygon stroke-linejoin="round" stroke-miterlimit="1" stroke-width="1" points="1642.5116577148438,935.1379699707031 1560.2618408203125,1085.1896362304688 1867.98486328125,1105.7001342773438" style="fill:#7e3689;stroke:#7e3689;"></polygon><polygon stroke-linejoin="round" stroke-miterlimit="1" stroke-width="1" points="1709.8953857421875,964.3553161621094 1560.2618408203125,1085.1896362304688 1642.5116577148438,935.1379699707031" style="fill:#7c1462;stroke:#7c1462;"></polygon><polygon stroke-linejoin="round" stroke-miterlimit="1" stroke-width="1" points="1855.90673828125,800.6404418945312 1709.8953857421875,964.3553161621094 1642.5116577148438,935.1379699707031" style="fill:#7c1462;stroke:#7c1462;"></polygon><polygon stroke-linejoin="round" stroke-miterlimit="1" stroke-width="1" points="1529.0795288085938,814.9926147460938 1709.8953857421875,964.3553161621094 1855.90673828125,800.6404418945312" style="fill:#7f499e;stroke:#7f499e;"></polygon><polygon stroke-linejoin="round" stroke-miterlimit="1" stroke-width="1" points="1788.1383056640625,649.9609375 1529.0795288085938,814.9926147460938 1855.90673828125,800.6404418945312" style="fill:#7e3f93;stroke:#7e3f93;"></polygon><polygon stroke-linejoin="round" stroke-miterlimit="1" stroke-width="1" points="1524.3047485351562,650.9312591552734 1529.0795288085938,814.9926147460938 1788.1383056640625,649.9609375" style="fill:#805ab1;stroke:#805ab1;"></polygon><polygon stroke-linejoin="round" stroke-miterlimit="1" stroke-width="1" points="1858.1651000976562,487.4248790740967 1524.3047485351562,650.9312591552734 1788.1383056640625,649.9609375" style="fill:#7f55ab;stroke:#7f55ab;"></polygon><polygon stroke-linejoin="round" stroke-miterlimit="1" stroke-width="1" points="1481.0563354492188,495.43651008605957 1524.3047485351562,650.9312591552734 1858.1651000976562,487.4248790740967" style="fill:#7f479c;stroke:#7f479c;"></polygon><polygon stroke-linejoin="round" stroke-miterlimit="1" stroke-width="1" points="1706.1583862304688,364.9999237060547 1481.0563354492188,495.43651008605957 1858.1651000976562,487.4248790740967" style="fill:#7f51a6;stroke:#7f51a6;"></polygon><polygon stroke-linejoin="round" stroke-miterlimit="1" stroke-width="1" points="1718.21240234375,357.48228454589844 1481.0563354492188,495.43651008605957 1706.1583862304688,364.9999237060547" style="fill:#7c1462;stroke:#7c1462;"></polygon><polygon stroke-linejoin="round" stroke-miterlimit="1" stroke-width="1" points="1808.498291015625,197.4979248046875 1718.21240234375,357.48228454589844 1706.1583862304688,364.9999237060547" style="fill:#7c1462;stroke:#7c1462;"></polygon><polygon stroke-linejoin="round" stroke-miterlimit="1" stroke-width="1" points="1709.8085327148438,186.42135620117188 1718.21240234375,357.48228454589844 1808.498291015625,197.4979248046875" style="fill:#7f55ab;stroke:#7f55ab;"></polygon><polygon stroke-linejoin="round" stroke-miterlimit="1" stroke-width="1" points="1806.9323120117188,35.96405029296875 1709.8085327148438,186.42135620117188 1808.498291015625,197.4979248046875" style="fill:#7f4fa4;stroke:#7f4fa4;"></polygon><polygon stroke-linejoin="round" stroke-miterlimit="1" stroke-width="1" points="1494.5001831054688,63.9803466796875 1709.8085327148438,186.42135620117188 1806.9323120117188,35.96405029296875" style="fill:#7f56ac;stroke:#7f56ac;"></polygon><polygon stroke-linejoin="round" stroke-miterlimit="1" stroke-width="1" points="1630.01220703125,-88.76568603515625 1494.5001831054688,63.9803466796875 1806.9323120117188,35.96405029296875" style="fill:#7f55ab;stroke:#7f55ab;"></polygon><polygon stroke-linejoin="round" stroke-miterlimit="1" stroke-width="1" points="1481.5789794921875,-90.83563232421875 1494.5001831054688,63.9803466796875 1630.01220703125,-88.76568603515625" style="fill:#8064bd;stroke:#8064bd;"></polygon><polygon stroke-linejoin="round" stroke-miterlimit="1" stroke-width="1" points="1709.8953857421875,964.3553161621094 1569.4816284179688,1089.4210205078125 1560.2618408203125,1085.1896362304688" style="fill:#7c1462;stroke:#7c1462;"></polygon><polygon stroke-linejoin="round" stroke-miterlimit="1" stroke-width="1" points="1442.4200744628906,961.575439453125 1569.4816284179688,1089.4210205078125 1709.8953857421875,964.3553161621094" style="fill:#7f4ba0;stroke:#7f4ba0;"></polygon><polygon stroke-linejoin="round" stroke-miterlimit="1" stroke-width="1" points="1529.0795288085938,814.9926147460938 1442.4200744628906,961.575439453125 1709.8953857421875,964.3553161621094" style="fill:#7f4da2;stroke:#7f4da2;"></polygon><polygon stroke-linejoin="round" stroke-miterlimit="1" stroke-width="1" points="1369.6215515136719,786.2904357910156 1442.4200744628906,961.575439453125 1529.0795288085938,814.9926147460938" style="fill:#805fb7;stroke:#805fb7;"></polygon><polygon stroke-linejoin="round" stroke-miterlimit="1" stroke-width="1" points="1524.3047485351562,650.9312591552734 1369.6215515136719,786.2904357910156 1529.0795288085938,814.9926147460938" style="fill:#8060b8;stroke:#8060b8;"></polygon><polygon stroke-linejoin="round" stroke-miterlimit="1" stroke-width="1" points="1420.8143920898438,664.9947509765625 1369.6215515136719,786.2904357910156 1524.3047485351562,650.9312591552734" style="fill:#7c1866;stroke:#7c1866;"></polygon><polygon stroke-linejoin="round" stroke-miterlimit="1" stroke-width="1" points="1481.0563354492188,495.43651008605957 1420.8143920898438,664.9947509765625 1524.3047485351562,650.9312591552734" style="fill:#7e3486;stroke:#7e3486;"></polygon><polygon stroke-linejoin="round" stroke-miterlimit="1" stroke-width="1" points="1478.2589416503906,504.4589276313782 1420.8143920898438,664.9947509765625 1481.0563354492188,495.43651008605957" style="fill:#93ffff;stroke:#93ffff;"></polygon><polygon stroke-linejoin="round" stroke-miterlimit="1" stroke-width="1" points="1718.21240234375,357.48228454589844 1478.2589416503906,504.4589276313782 1481.0563354492188,495.43651008605957" style="fill:#89ffff;stroke:#89ffff;"></polygon><polygon stroke-linejoin="round" stroke-miterlimit="1" stroke-width="1" points="1344.7606201171875,364.2257995605469 1478.2589416503906,504.4589276313782 1718.21240234375,357.48228454589844" style="fill:#8059b0;stroke:#8059b0;"></polygon><polygon stroke-linejoin="round" stroke-miterlimit="1" stroke-width="1" points="1709.8085327148438,186.42135620117188 1344.7606201171875,364.2257995605469 1718.21240234375,357.48228454589844" style="fill:#7f55ac;stroke:#7f55ac;"></polygon><polygon stroke-linejoin="round" stroke-miterlimit="1" stroke-width="1" points="1469.3405456542969,205.2218017578125 1344.7606201171875,364.2257995605469 1709.8085327148438,186.42135620117188" style="fill:#8175d0;stroke:#8175d0;"></polygon><polygon stroke-linejoin="round" stroke-miterlimit="1" stroke-width="1" points="1494.5001831054688,63.9803466796875 1469.3405456542969,205.2218017578125 1709.8085327148438,186.42135620117188" style="fill:#816dc7;stroke:#816dc7;"></polygon><polygon stroke-linejoin="round" stroke-miterlimit="1" stroke-width="1" points="1564.86962890625,35.09442138671875 1469.3405456542969,205.2218017578125 1494.5001831054688,63.9803466796875" style="fill:#7c1462;stroke:#7c1462;"></polygon><polygon stroke-linejoin="round" stroke-miterlimit="1" stroke-width="1" points="1481.5789794921875,-90.83563232421875 1564.86962890625,35.09442138671875 1494.5001831054688,63.9803466796875" style="fill:#7c1462;stroke:#7c1462;"></polygon><polygon stroke-linejoin="round" stroke-miterlimit="1" stroke-width="1" points="1461.2994995117188,-85.5479736328125 1564.86962890625,35.09442138671875 1481.5789794921875,-90.83563232421875" style="fill:#7e3587;stroke:#7e3587;"></polygon><polygon stroke-linejoin="round" stroke-miterlimit="1" stroke-width="1" points="1442.4200744628906,961.575439453125 1416.4355163574219,1113.3909301757812 1569.4816284179688,1089.4210205078125" style="fill:#7f4ba0;stroke:#7f4ba0;"></polygon><polygon stroke-linejoin="round" stroke-miterlimit="1" stroke-width="1" points="1233.8223266601562,950.3465881347656 1416.4355163574219,1113.3909301757812 1442.4200744628906,961.575439453125" style="fill:#8059b0;stroke:#8059b0;"></polygon><polygon stroke-linejoin="round" stroke-miterlimit="1" stroke-width="1" points="1369.6215515136719,786.2904357910156 1233.8223266601562,950.3465881347656 1442.4200744628906,961.575439453125" style="fill:#8064bc;stroke:#8064bc;"></polygon><polygon stroke-linejoin="round" stroke-miterlimit="1" stroke-width="1" points="1206.500228881836,809.3444213867188 1233.8223266601562,950.3465881347656 1369.6215515136719,786.2904357910156" style="fill:#7f479c;stroke:#7f479c;"></polygon><polygon stroke-linejoin="round" stroke-miterlimit="1" stroke-width="1" points="1420.8143920898438,664.9947509765625 1206.500228881836,809.3444213867188 1369.6215515136719,786.2904357910156" style="fill:#7d3082;stroke:#7d3082;"></polygon><polygon stroke-linejoin="round" stroke-miterlimit="1" stroke-width="1" points="1419.9979858398438,643.1120147705078 1206.500228881836,809.3444213867188 1420.8143920898438,664.9947509765625" style="fill:#8066be;stroke:#8066be;"></polygon><polygon stroke-linejoin="round" stroke-miterlimit="1" stroke-width="1" points="1478.2589416503906,504.4589276313782 1419.9979858398438,643.1120147705078 1420.8143920898438,664.9947509765625" style="fill:#7d2c7d;stroke:#7d2c7d;"></polygon><polygon stroke-linejoin="round" stroke-miterlimit="1" stroke-width="1" points="1188.8378601074219,487.08537769317627 1419.9979858398438,643.1120147705078 1478.2589416503906,504.4589276313782" style="fill:#8176d0;stroke:#8176d0;"></polygon><polygon stroke-linejoin="round" stroke-miterlimit="1" stroke-width="1" points="1344.7606201171875,364.2257995605469 1188.8378601074219,487.08537769317627 1478.2589416503906,504.4589276313782" style="fill:#816dc7;stroke:#816dc7;"></polygon><polygon stroke-linejoin="round" stroke-miterlimit="1" stroke-width="1" points="1180.4553527832031,342.47560119628906 1188.8378601074219,487.08537769317627 1344.7606201171875,364.2257995605469" style="fill:#84aaff;stroke:#84aaff;"></polygon><polygon stroke-linejoin="round" stroke-miterlimit="1" stroke-width="1" points="1469.3405456542969,205.2218017578125 1180.4553527832031,342.47560119628906 1344.7606201171875,364.2257995605469" style="fill:#8396f5;stroke:#8396f5;"></polygon><polygon stroke-linejoin="round" stroke-miterlimit="1" stroke-width="1" points="1264.3707580566406,214.96438598632812 1180.4553527832031,342.47560119628906 1469.3405456542969,205.2218017578125" style="fill:#828eec;stroke:#828eec;"></polygon><polygon stroke-linejoin="round" stroke-miterlimit="1" stroke-width="1" points="1564.86962890625,35.09442138671875 1264.3707580566406,214.96438598632812 1469.3405456542969,205.2218017578125" style="fill:#816fc9;stroke:#816fc9;"></polygon><polygon stroke-linejoin="round" stroke-miterlimit="1" stroke-width="1" points="1211.621337890625,35.61651611328125 1264.3707580566406,214.96438598632812 1564.86962890625,35.09442138671875" style="fill:#8289e6;stroke:#8289e6;"></polygon><polygon stroke-linejoin="round" stroke-miterlimit="1" stroke-width="1" points="1461.2994995117188,-85.5479736328125 1211.621337890625,35.61651611328125 1564.86962890625,35.09442138671875" style="fill:#8170c9;stroke:#8170c9;"></polygon><polygon stroke-linejoin="round" stroke-miterlimit="1" stroke-width="1" points="1316.6329040527344,-93.77008056640625 1211.621337890625,35.61651611328125 1461.2994995117188,-85.5479736328125" style="fill:#817eda;stroke:#817eda;"></polygon><polygon stroke-linejoin="round" stroke-miterlimit="1" stroke-width="1" points="1233.8223266601562,950.3465881347656 1044.0682907104492,1095.2258911132812 1416.4355163574219,1113.3909301757812" style="fill:#805fb7;stroke:#805fb7;"></polygon><polygon stroke-linejoin="round" stroke-miterlimit="1" stroke-width="1" points="1225.825210571289,957.5286865234375 1044.0682907104492,1095.2258911132812 1233.8223266601562,950.3465881347656" style="fill:#7c1462;stroke:#7c1462;"></polygon><polygon stroke-linejoin="round" stroke-miterlimit="1" stroke-width="1" points="1206.500228881836,809.3444213867188 1225.825210571289,957.5286865234375 1233.8223266601562,950.3465881347656" style="fill:#7d2879;stroke:#7d2879;"></polygon><polygon stroke-linejoin="round" stroke-miterlimit="1" stroke-width="1" points="1062.4846115112305,793.255859375 1225.825210571289,957.5286865234375 1206.500228881836,809.3444213867188" style="fill:#7f57ad;stroke:#7f57ad;"></polygon><polygon stroke-linejoin="round" stroke-miterlimit="1" stroke-width="1" points="1419.9979858398438,643.1120147705078 1062.4846115112305,793.255859375 1206.500228881836,809.3444213867188" style="fill:#805fb7;stroke:#805fb7;"></polygon><polygon stroke-linejoin="round" stroke-miterlimit="1" stroke-width="1" points="1232.5191040039062,641.3485870361328 1062.4846115112305,793.255859375 1419.9979858398438,643.1120147705078" style="fill:#8393f2;stroke:#8393f2;"></polygon><polygon stroke-linejoin="round" stroke-miterlimit="1" stroke-width="1" points="1188.8378601074219,487.08537769317627 1232.5191040039062,641.3485870361328 1419.9979858398438,643.1120147705078" style="fill:#8177d2;stroke:#8177d2;"></polygon><polygon stroke-linejoin="round" stroke-miterlimit="1" stroke-width="1" points="1031.989990234375,514.2204532623291 1232.5191040039062,641.3485870361328 1188.8378601074219,487.08537769317627" style="fill:#8288e5;stroke:#8288e5;"></polygon><polygon stroke-linejoin="round" stroke-miterlimit="1" stroke-width="1" points="1180.4553527832031,342.47560119628906 1031.989990234375,514.2204532623291 1188.8378601074219,487.08537769317627" style="fill:#85b8ff;stroke:#85b8ff;"></polygon><polygon stroke-linejoin="round" stroke-miterlimit="1" stroke-width="1" points="1206.5258178710938,364.12013244628906 1031.989990234375,514.2204532623291 1180.4553527832031,342.47560119628906" style="fill:#7c1462;stroke:#7c1462;"></polygon><polygon stroke-linejoin="round" stroke-miterlimit="1" stroke-width="1" points="1264.3707580566406,214.96438598632812 1206.5258178710938,364.12013244628906 1180.4553527832031,342.47560119628906" style="fill:#7c1462;stroke:#7c1462;"></polygon><polygon stroke-linejoin="round" stroke-miterlimit="1" stroke-width="1" points="1267.6396179199219,209.74526977539062 1206.5258178710938,364.12013244628906 1264.3707580566406,214.96438598632812" style="fill:#7c1462;stroke:#7c1462;"></polygon><polygon stroke-linejoin="round" stroke-miterlimit="1" stroke-width="1" points="1211.621337890625,35.61651611328125 1267.6396179199219,209.74526977539062 1264.3707580566406,214.96438598632812" style="fill:#7c1462;stroke:#7c1462;"></polygon><polygon stroke-linejoin="round" stroke-miterlimit="1" stroke-width="1" points="1034.3249740600586,64.99948120117188 1267.6396179199219,209.74526977539062 1211.621337890625,35.61651611328125" style="fill:#85b9ff;stroke:#85b9ff;"></polygon><polygon stroke-linejoin="round" stroke-miterlimit="1" stroke-width="1" points="1316.6329040527344,-93.77008056640625 1034.3249740600586,64.99948120117188 1211.621337890625,35.61651611328125" style="fill:#84a6ff;stroke:#84a6ff;"></polygon><polygon stroke-linejoin="round" stroke-miterlimit="1" stroke-width="1" points="1191.4635925292969,-108.60693359375 1034.3249740600586,64.99948120117188 1316.6329040527344,-93.77008056640625" style="fill:#839efe;stroke:#839efe;"></polygon><polygon stroke-linejoin="round" stroke-miterlimit="1" stroke-width="1" points="1225.825210571289,957.5286865234375 1072.7011947631836,1105.888671875 1044.0682907104492,1095.2258911132812" style="fill:#7c1462;stroke:#7c1462;"></polygon><polygon stroke-linejoin="round" stroke-miterlimit="1" stroke-width="1" points="999.2599359750748,938.8175964355469 1072.7011947631836,1105.888671875 1225.825210571289,957.5286865234375" style="fill:#8063bb;stroke:#8063bb;"></polygon><polygon stroke-linejoin="round" stroke-miterlimit="1" stroke-width="1" points="1062.4846115112305,793.255859375 999.2599359750748,938.8175964355469 1225.825210571289,957.5286865234375" style="fill:#7f4da3;stroke:#7f4da3;"></polygon><polygon stroke-linejoin="round" stroke-miterlimit="1" stroke-width="1" points="1113.8531646728516,786.4102172851562 999.2599359750748,938.8175964355469 1062.4846115112305,793.255859375" style="fill:#7c1462;stroke:#7c1462;"></polygon><polygon stroke-linejoin="round" stroke-miterlimit="1" stroke-width="1" points="1232.5191040039062,641.3485870361328 1113.8531646728516,786.4102172851562 1062.4846115112305,793.255859375" style="fill:#7c1a68;stroke:#7c1a68;"></polygon><polygon stroke-linejoin="round" stroke-miterlimit="1" stroke-width="1" points="1023.2154197692871,637.6492462158203 1113.8531646728516,786.4102172851562 1232.5191040039062,641.3485870361328" style="fill:#8065be;stroke:#8065be;"></polygon><polygon stroke-linejoin="round" stroke-miterlimit="1" stroke-width="1" points="1031.989990234375,514.2204532623291 1023.2154197692871,637.6492462158203 1232.5191040039062,641.3485870361328" style="fill:#8287e3;stroke:#8287e3;"></polygon><polygon stroke-linejoin="round" stroke-miterlimit="1" stroke-width="1" points="1113.6639709472656,509.86072635650635 1023.2154197692871,637.6492462158203 1031.989990234375,514.2204532623291" style="fill:#7c1462;stroke:#7c1462;"></polygon><polygon stroke-linejoin="round" stroke-miterlimit="1" stroke-width="1" points="1206.5258178710938,364.12013244628906 1113.6639709472656,509.86072635650635 1031.989990234375,514.2204532623291" style="fill:#7c1462;stroke:#7c1462;"></polygon><polygon stroke-linejoin="round" stroke-miterlimit="1" stroke-width="1" points="957.9400520324707,358.493408203125 1113.6639709472656,509.86072635650635 1206.5258178710938,364.12013244628906" style="fill:#88f0ff;stroke:#88f0ff;"></polygon><polygon stroke-linejoin="round" stroke-miterlimit="1" stroke-width="1" points="1267.6396179199219,209.74526977539062 957.9400520324707,358.493408203125 1206.5258178710938,364.12013244628906" style="fill:#87eaff;stroke:#87eaff;"></polygon><polygon stroke-linejoin="round" stroke-miterlimit="1" stroke-width="1" points="884.7827835083008,206.72708129882812 957.9400520324707,358.493408203125 1267.6396179199219,209.74526977539062" style="fill:#8effff;stroke:#8effff;"></polygon><polygon stroke-linejoin="round" stroke-miterlimit="1" stroke-width="1" points="1034.3249740600586,64.99948120117188 884.7827835083008,206.72708129882812 1267.6396179199219,209.74526977539062" style="fill:#89ffff;stroke:#89ffff;"></polygon><polygon stroke-linejoin="round" stroke-miterlimit="1" stroke-width="1" points="1016.1861629486084,64.9989013671875 884.7827835083008,206.72708129882812 1034.3249740600586,64.99948120117188" style="fill:#89ffff;stroke:#89ffff;"></polygon><polygon stroke-linejoin="round" stroke-miterlimit="1" stroke-width="1" points="1191.4635925292969,-108.60693359375 1016.1861629486084,64.9989013671875 1034.3249740600586,64.99948120117188" style="fill:#85c5ff;stroke:#85c5ff;"></polygon><polygon stroke-linejoin="round" stroke-miterlimit="1" stroke-width="1" points="938.8283157348633,-94.833251953125 1016.1861629486084,64.9989013671875 1191.4635925292969,-108.60693359375" style="fill:#84b3ff;stroke:#84b3ff;"></polygon><polygon stroke-linejoin="round" stroke-miterlimit="1" stroke-width="1" points="999.2599359750748,938.8175964355469 752.5596160888672,1086.0287475585938 1072.7011947631836,1105.888671875" style="fill:#8065bd;stroke:#8065bd;"></polygon><polygon stroke-linejoin="round" stroke-miterlimit="1" stroke-width="1" points="869.2304840087891,945.5797119140625 752.5596160888672,1086.0287475585938 999.2599359750748,938.8175964355469" style="fill:#7f4fa5;stroke:#7f4fa5;"></polygon><polygon stroke-linejoin="round" stroke-miterlimit="1" stroke-width="1" points="1113.8531646728516,786.4102172851562 869.2304840087891,945.5797119140625 999.2599359750748,938.8175964355469" style="fill:#7f50a5;stroke:#7f50a5;"></polygon><polygon stroke-linejoin="round" stroke-miterlimit="1" stroke-width="1" points="756.91748046875,813.0342407226562 869.2304840087891,945.5797119140625 1113.8531646728516,786.4102172851562" style="fill:#8065bd;stroke:#8065bd;"></polygon><polygon stroke-linejoin="round" stroke-miterlimit="1" stroke-width="1" points="1023.2154197692871,637.6492462158203 756.91748046875,813.0342407226562 1113.8531646728516,786.4102172851562" style="fill:#8063bb;stroke:#8063bb;"></polygon><polygon stroke-linejoin="round" stroke-miterlimit="1" stroke-width="1" points="966.8230133056641,664.8875427246094 756.91748046875,813.0342407226562 1023.2154197692871,637.6492462158203" style="fill:#805fb7;stroke:#805fb7;"></polygon><polygon stroke-linejoin="round" stroke-miterlimit="1" stroke-width="1" points="1113.6639709472656,509.86072635650635 966.8230133056641,664.8875427246094 1023.2154197692871,637.6492462158203" style="fill:#8288e5;stroke:#8288e5;"></polygon><polygon stroke-linejoin="round" stroke-miterlimit="1" stroke-width="1" points="849.6250610351562,501.6382782459259 966.8230133056641,664.8875427246094 1113.6639709472656,509.86072635650635" style="fill:#84a8ff;stroke:#84a8ff;"></polygon><polygon stroke-linejoin="round" stroke-miterlimit="1" stroke-width="1" points="957.9400520324707,358.493408203125 849.6250610351562,501.6382782459259 1113.6639709472656,509.86072635650635" style="fill:#88ffff;stroke:#88ffff;"></polygon><polygon stroke-linejoin="round" stroke-miterlimit="1" stroke-width="1" points="914.1066741943359,335.82359313964844 849.6250610351562,501.6382782459259 957.9400520324707,358.493408203125" style="fill:#8bffff;stroke:#8bffff;"></polygon><polygon stroke-linejoin="round" stroke-miterlimit="1" stroke-width="1" points="884.7827835083008,206.72708129882812 914.1066741943359,335.82359313964844 957.9400520324707,358.493408203125" style="fill:#91ffff;stroke:#91ffff;"></polygon><polygon stroke-linejoin="round" stroke-miterlimit="1" stroke-width="1" points="730.8382263183594,204.64236450195312 914.1066741943359,335.82359313964844 884.7827835083008,206.72708129882812" style="fill:#8effff;stroke:#8effff;"></polygon><polygon stroke-linejoin="round" stroke-miterlimit="1" stroke-width="1" points="1016.1861629486084,64.9989013671875 730.8382263183594,204.64236450195312 884.7827835083008,206.72708129882812" style="fill:#8cffff;stroke:#8cffff;"></polygon><polygon stroke-linejoin="round" stroke-miterlimit="1" stroke-width="1" points="901.0907211303711,40.618072509765625 730.8382263183594,204.64236450195312 1016.1861629486084,64.9989013671875" style="fill:#89ffff;stroke:#89ffff;"></polygon><polygon stroke-linejoin="round" stroke-miterlimit="1" stroke-width="1" points="938.8283157348633,-94.833251953125 901.0907211303711,40.618072509765625 1016.1861629486084,64.9989013671875" style="fill:#85c5ff;stroke:#85c5ff;"></polygon><polygon stroke-linejoin="round" stroke-miterlimit="1" stroke-width="1" points="961.4567642211914,-85.05596923828125 901.0907211303711,40.618072509765625 938.8283157348633,-94.833251953125" style="fill:#7c1462;stroke:#7c1462;"></polygon><polygon stroke-linejoin="round" stroke-miterlimit="1" stroke-width="1" points="869.2304840087891,945.5797119140625 596.1456909179688,1085.1295166015625 752.5596160888672,1086.0287475585938" style="fill:#8067c0;stroke:#8067c0;"></polygon><polygon stroke-linejoin="round" stroke-miterlimit="1" stroke-width="1" points="608.3495483398438,936.427490234375 596.1456909179688,1085.1295166015625 869.2304840087891,945.5797119140625" style="fill:#7e3c90;stroke:#7e3c90;"></polygon><polygon stroke-linejoin="round" stroke-miterlimit="1" stroke-width="1" points="756.91748046875,813.0342407226562 608.3495483398438,936.427490234375 869.2304840087891,945.5797119140625" style="fill:#7f54aa;stroke:#7f54aa;"></polygon><polygon stroke-linejoin="round" stroke-miterlimit="1" stroke-width="1" points="589.1772766113281,814.4862365722656 608.3495483398438,936.427490234375 756.91748046875,813.0342407226562" style="fill:#8059b0;stroke:#8059b0;"></polygon><polygon stroke-linejoin="round" stroke-miterlimit="1" stroke-width="1" points="966.8230133056641,664.8875427246094 589.1772766113281,814.4862365722656 756.91748046875,813.0342407226562" style="fill:#816ec7;stroke:#816ec7;"></polygon><polygon stroke-linejoin="round" stroke-miterlimit="1" stroke-width="1" points="748.8994140625,661.4718017578125 589.1772766113281,814.4862365722656 966.8230133056641,664.8875427246094" style="fill:#8280dc;stroke:#8280dc;"></polygon><polygon stroke-linejoin="round" stroke-miterlimit="1" stroke-width="1" points="849.6250610351562,501.6382782459259 748.8994140625,661.4718017578125 966.8230133056641,664.8875427246094" style="fill:#828deb;stroke:#828deb;"></polygon><polygon stroke-linejoin="round" stroke-miterlimit="1" stroke-width="1" points="581.3484191894531,502.75549721717834 748.8994140625,661.4718017578125 849.6250610351562,501.6382782459259" style="fill:#828cea;stroke:#828cea;"></polygon><polygon stroke-linejoin="round" stroke-miterlimit="1" stroke-width="1" points="914.1066741943359,335.82359313964844 581.3484191894531,502.75549721717834 849.6250610351562,501.6382782459259" style="fill:#86dcff;stroke:#86dcff;"></polygon><polygon stroke-linejoin="round" stroke-miterlimit="1" stroke-width="1" points="581.1007080078125,362.72535705566406 581.3484191894531,502.75549721717834 914.1066741943359,335.82359313964844" style="fill:#85c2ff;stroke:#85c2ff;"></polygon><polygon stroke-linejoin="round" stroke-miterlimit="1" stroke-width="1" points="730.8382263183594,204.64236450195312 581.1007080078125,362.72535705566406 914.1066741943359,335.82359313964844" style="fill:#87ebff;stroke:#87ebff;"></polygon><polygon stroke-linejoin="round" stroke-miterlimit="1" stroke-width="1" points="596.8211059570312,191.422607421875 581.1007080078125,362.72535705566406 730.8382263183594,204.64236450195312" style="fill:#84a8ff;stroke:#84a8ff;"></polygon><polygon stroke-linejoin="round" stroke-miterlimit="1" stroke-width="1" points="901.0907211303711,40.618072509765625 596.8211059570312,191.422607421875 730.8382263183594,204.64236450195312" style="fill:#86ccff;stroke:#86ccff;"></polygon><polygon stroke-linejoin="round" stroke-miterlimit="1" stroke-width="1" points="648.8536987304688,57.979888916015625 596.8211059570312,191.422607421875 901.0907211303711,40.618072509765625" style="fill:#85c6ff;stroke:#85c6ff;"></polygon><polygon stroke-linejoin="round" stroke-miterlimit="1" stroke-width="1" points="961.4567642211914,-85.05596923828125 648.8536987304688,57.979888916015625 901.0907211303711,40.618072509765625" style="fill:#86d4ff;stroke:#86d4ff;"></polygon><polygon stroke-linejoin="round" stroke-miterlimit="1" stroke-width="1" points="756.5118408203125,-103.93414306640625 648.8536987304688,57.979888916015625 961.4567642211914,-85.05596923828125" style="fill:#8282de;stroke:#8282de;"></polygon><polygon stroke-linejoin="round" stroke-miterlimit="1" stroke-width="1" points="608.3495483398438,936.427490234375 493.29168701171875,1087.1165771484375 596.1456909179688,1085.1295166015625" style="fill:#7e3c90;stroke:#7e3c90;"></polygon><polygon stroke-linejoin="round" stroke-miterlimit="1" stroke-width="1" points="665.0440673828125,953.7469177246094 493.29168701171875,1087.1165771484375 608.3495483398438,936.427490234375" style="fill:#7c1462;stroke:#7c1462;"></polygon><polygon stroke-linejoin="round" stroke-miterlimit="1" stroke-width="1" points="589.1772766113281,814.4862365722656 665.0440673828125,953.7469177246094 608.3495483398438,936.427490234375" style="fill:#7c1462;stroke:#7c1462;"></polygon><polygon stroke-linejoin="round" stroke-miterlimit="1" stroke-width="1" points="507.601806640625,797.455322265625 665.0440673828125,953.7469177246094 589.1772766113281,814.4862365722656" style="fill:#7d2373;stroke:#7d2373;"></polygon><polygon stroke-linejoin="round" stroke-miterlimit="1" stroke-width="1" points="748.8994140625,661.4718017578125 507.601806640625,797.455322265625 589.1772766113281,814.4862365722656" style="fill:#817ad5;stroke:#817ad5;"></polygon><polygon stroke-linejoin="round" stroke-miterlimit="1" stroke-width="1" points="603.9867553710938,645.8565368652344 507.601806640625,797.455322265625 748.8994140625,661.4718017578125" style="fill:#8067bf;stroke:#8067bf;"></polygon><polygon stroke-linejoin="round" stroke-miterlimit="1" stroke-width="1" points="581.3484191894531,502.75549721717834 603.9867553710938,645.8565368652344 748.8994140625,661.4718017578125" style="fill:#816ec7;stroke:#816ec7;"></polygon><polygon stroke-linejoin="round" stroke-miterlimit="1" stroke-width="1" points="669.5383911132812,486.07194232940674 603.9867553710938,645.8565368652344 581.3484191894531,502.75549721717834" style="fill:#7c1462;stroke:#7c1462;"></polygon><polygon stroke-linejoin="round" stroke-miterlimit="1" stroke-width="1" points="581.1007080078125,362.72535705566406 669.5383911132812,486.07194232940674 581.3484191894531,502.75549721717834" style="fill:#7c1462;stroke:#7c1462;"></polygon><polygon stroke-linejoin="round" stroke-miterlimit="1" stroke-width="1" points="433.147216796875,335.81451416015625 669.5383911132812,486.07194232940674 581.1007080078125,362.72535705566406" style="fill:#8392f1;stroke:#8392f1;"></polygon><polygon stroke-linejoin="round" stroke-miterlimit="1" stroke-width="1" points="596.8211059570312,191.422607421875 433.147216796875,335.81451416015625 581.1007080078125,362.72535705566406" style="fill:#8288e5;stroke:#8288e5;"></polygon><polygon stroke-linejoin="round" stroke-miterlimit="1" stroke-width="1" points="461.67010498046875,195.59909057617188 433.147216796875,335.81451416015625 596.8211059570312,191.422607421875" style="fill:#8067c0;stroke:#8067c0;"></polygon><polygon stroke-linejoin="round" stroke-miterlimit="1" stroke-width="1" points="648.8536987304688,57.979888916015625 461.67010498046875,195.59909057617188 596.8211059570312,191.422607421875" style="fill:#8173cd;stroke:#8173cd;"></polygon><polygon stroke-linejoin="round" stroke-miterlimit="1" stroke-width="1" points="612.4577941894531,63.65594482421875 461.67010498046875,195.59909057617188 648.8536987304688,57.979888916015625" style="fill:#84a5ff;stroke:#84a5ff;"></polygon><polygon stroke-linejoin="round" stroke-miterlimit="1" stroke-width="1" points="756.5118408203125,-103.93414306640625 612.4577941894531,63.65594482421875 648.8536987304688,57.979888916015625" style="fill:#8286e3;stroke:#8286e3;"></polygon><polygon stroke-linejoin="round" stroke-miterlimit="1" stroke-width="1" points="586.5476379394531,-86.5323486328125 612.4577941894531,63.65594482421875 756.5118408203125,-103.93414306640625" style="fill:#8171cb;stroke:#8171cb;"></polygon><polygon stroke-linejoin="round" stroke-miterlimit="1" stroke-width="1" points="665.0440673828125,953.7469177246094 499.8751220703125,1107.685302734375 493.29168701171875,1087.1165771484375" style="fill:#7c1664;stroke:#7c1664;"></polygon><polygon stroke-linejoin="round" stroke-miterlimit="1" stroke-width="1" points="365.8717041015625,941.8495788574219 499.8751220703125,1107.685302734375 665.0440673828125,953.7469177246094" style="fill:#7d3385;stroke:#7d3385;"></polygon><polygon stroke-linejoin="round" stroke-miterlimit="1" stroke-width="1" points="507.601806640625,797.455322265625 365.8717041015625,941.8495788574219 665.0440673828125,953.7469177246094" style="fill:#816dc6;stroke:#816dc6;"></polygon><polygon stroke-linejoin="round" stroke-miterlimit="1" stroke-width="1" points="296.98944091796875,814.8541259765625 365.8717041015625,941.8495788574219 507.601806640625,797.455322265625" style="fill:#8066bf;stroke:#8066bf;"></polygon><polygon stroke-linejoin="round" stroke-miterlimit="1" stroke-width="1" points="603.9867553710938,645.8565368652344 296.98944091796875,814.8541259765625 507.601806640625,797.455322265625" style="fill:#805bb2;stroke:#805bb2;"></polygon><polygon stroke-linejoin="round" stroke-miterlimit="1" stroke-width="1" points="340.40899658203125,664.9879150390625 296.98944091796875,814.8541259765625 603.9867553710938,645.8565368652344" style="fill:#8064bd;stroke:#8064bd;"></polygon><polygon stroke-linejoin="round" stroke-miterlimit="1" stroke-width="1" points="669.5383911132812,486.07194232940674 340.40899658203125,664.9879150390625 603.9867553710938,645.8565368652344" style="fill:#817ad5;stroke:#817ad5;"></polygon><polygon stroke-linejoin="round" stroke-miterlimit="1" stroke-width="1" points="471.7763671875,513.9469757080078 340.40899658203125,664.9879150390625 669.5383911132812,486.07194232940674" style="fill:#8178d2;stroke:#8178d2;"></polygon><polygon stroke-linejoin="round" stroke-miterlimit="1" stroke-width="1" points="433.147216796875,335.81451416015625 471.7763671875,513.9469757080078 669.5383911132812,486.07194232940674" style="fill:#828ae7;stroke:#828ae7;"></polygon><polygon stroke-linejoin="round" stroke-miterlimit="1" stroke-width="1" points="402.87957763671875,360.69114685058594 471.7763671875,513.9469757080078 433.147216796875,335.81451416015625" style="fill:#86d6ff;stroke:#86d6ff;"></polygon><polygon stroke-linejoin="round" stroke-miterlimit="1" stroke-width="1" points="461.67010498046875,195.59909057617188 402.87957763671875,360.69114685058594 433.147216796875,335.81451416015625" style="fill:#88fbff;stroke:#88fbff;"></polygon><polygon stroke-linejoin="round" stroke-miterlimit="1" stroke-width="1" points="504.3570556640625,186.18951416015625 402.87957763671875,360.69114685058594 461.67010498046875,195.59909057617188" style="fill:#7d2474;stroke:#7d2474;"></polygon><polygon stroke-linejoin="round" stroke-miterlimit="1" stroke-width="1" points="612.4577941894531,63.65594482421875 504.3570556640625,186.18951416015625 461.67010498046875,195.59909057617188" style="fill:#7e3688;stroke:#7e3688;"></polygon><polygon stroke-linejoin="round" stroke-miterlimit="1" stroke-width="1" points="509.8720703125,37.48779296875 504.3570556640625,186.18951416015625 612.4577941894531,63.65594482421875" style="fill:#827fdb;stroke:#827fdb;"></polygon><polygon stroke-linejoin="round" stroke-miterlimit="1" stroke-width="1" points="586.5476379394531,-86.5323486328125 509.8720703125,37.48779296875 612.4577941894531,63.65594482421875" style="fill:#8174ce;stroke:#8174ce;"></polygon><polygon stroke-linejoin="round" stroke-miterlimit="1" stroke-width="1" points="477.74371337890625,-114.97515869140625 509.8720703125,37.48779296875 586.5476379394531,-86.5323486328125" style="fill:#8283df;stroke:#8283df;"></polygon><polygon stroke-linejoin="round" stroke-miterlimit="1" stroke-width="1" points="365.8717041015625,941.8495788574219 241.4346923828125,1090.3253784179688 499.8751220703125,1107.685302734375" style="fill:#7e4498;stroke:#7e4498;"></polygon><polygon stroke-linejoin="round" stroke-miterlimit="1" stroke-width="1" points="282.74969482421875,964.7039489746094 241.4346923828125,1090.3253784179688 365.8717041015625,941.8495788574219" style="fill:#7e4498;stroke:#7e4498;"></polygon><polygon stroke-linejoin="round" stroke-miterlimit="1" stroke-width="1" points="296.98944091796875,814.8541259765625 282.74969482421875,964.7039489746094 365.8717041015625,941.8495788574219" style="fill:#7e3a8c;stroke:#7e3a8c;"></polygon><polygon stroke-linejoin="round" stroke-miterlimit="1" stroke-width="1" points="190.7822265625,786.5216674804688 282.74969482421875,964.7039489746094 296.98944091796875,814.8541259765625" style="fill:#7d2d7e;stroke:#7d2d7e;"></polygon><polygon stroke-linejoin="round" stroke-miterlimit="1" stroke-width="1" points="340.40899658203125,664.9879150390625 190.7822265625,786.5216674804688 296.98944091796875,814.8541259765625" style="fill:#7f469b;stroke:#7f469b;"></polygon><polygon stroke-linejoin="round" stroke-miterlimit="1" stroke-width="1" points="201.39739990234375,663.8503265380859 190.7822265625,786.5216674804688 340.40899658203125,664.9879150390625" style="fill:#7f479c;stroke:#7f479c;"></polygon><polygon stroke-linejoin="round" stroke-miterlimit="1" stroke-width="1" points="471.7763671875,513.9469757080078 201.39739990234375,663.8503265380859 340.40899658203125,664.9879150390625" style="fill:#7f58af;stroke:#7f58af;"></polygon><polygon stroke-linejoin="round" stroke-miterlimit="1" stroke-width="1" points="130.2388916015625,485.0525140762329 201.39739990234375,663.8503265380859 471.7763671875,513.9469757080078" style="fill:#7f55ac;stroke:#7f55ac;"></polygon><polygon stroke-linejoin="round" stroke-miterlimit="1" stroke-width="1" points="402.87957763671875,360.69114685058594 130.2388916015625,485.0525140762329 471.7763671875,513.9469757080078" style="fill:#7f59af;stroke:#7f59af;"></polygon><polygon stroke-linejoin="round" stroke-miterlimit="1" stroke-width="1" points="331.87091064453125,346.21917724609375 130.2388916015625,485.0525140762329 402.87957763671875,360.69114685058594" style="fill:#7f4a9f;stroke:#7f4a9f;"></polygon><polygon stroke-linejoin="round" stroke-miterlimit="1" stroke-width="1" points="504.3570556640625,186.18951416015625 331.87091064453125,346.21917724609375 402.87957763671875,360.69114685058594" style="fill:#7f4fa5;stroke:#7f4fa5;"></polygon><polygon stroke-linejoin="round" stroke-miterlimit="1" stroke-width="1" points="343.07073974609375,207.16754150390625 331.87091064453125,346.21917724609375 504.3570556640625,186.18951416015625" style="fill:#8170ca;stroke:#8170ca;"></polygon><polygon stroke-linejoin="round" stroke-miterlimit="1" stroke-width="1" points="509.8720703125,37.48779296875 343.07073974609375,207.16754150390625 504.3570556640625,186.18951416015625" style="fill:#8172cd;stroke:#8172cd;"></polygon><polygon stroke-linejoin="round" stroke-miterlimit="1" stroke-width="1" points="297.8834228515625,54.401336669921875 343.07073974609375,207.16754150390625 509.8720703125,37.48779296875" style="fill:#8059b0;stroke:#8059b0;"></polygon><polygon stroke-linejoin="round" stroke-miterlimit="1" stroke-width="1" points="477.74371337890625,-114.97515869140625 297.8834228515625,54.401336669921875 509.8720703125,37.48779296875" style="fill:#805db4;stroke:#805db4;"></polygon><polygon stroke-linejoin="round" stroke-miterlimit="1" stroke-width="1" points="264.6353759765625,-98.648193359375 297.8834228515625,54.401336669921875 477.74371337890625,-114.97515869140625" style="fill:#7f4a9f;stroke:#7f4a9f;"></polygon><polygon stroke-linejoin="round" stroke-miterlimit="1" stroke-width="1" points="282.74969482421875,964.7039489746094 186.107177734375,1092.01416015625 241.4346923828125,1090.3253784179688" style="fill:#7d2a7a;stroke:#7d2a7a;"></polygon><polygon stroke-linejoin="round" stroke-miterlimit="1" stroke-width="1" points="94.78369140625,938.184814453125 186.107177734375,1092.01416015625 282.74969482421875,964.7039489746094" style="fill:#7d3182;stroke:#7d3182;"></polygon><polygon stroke-linejoin="round" stroke-miterlimit="1" stroke-width="1" points="190.7822265625,786.5216674804688 94.78369140625,938.184814453125 282.74969482421875,964.7039489746094" style="fill:#7e3e92;stroke:#7e3e92;"></polygon><polygon stroke-linejoin="round" stroke-miterlimit="1" stroke-width="1" points="150.57073974609375,808.0890808105469 94.78369140625,938.184814453125 190.7822265625,786.5216674804688" style="fill:#806cc5;stroke:#806cc5;"></polygon><polygon stroke-linejoin="round" stroke-miterlimit="1" stroke-width="1" points="201.39739990234375,663.8503265380859 150.57073974609375,808.0890808105469 190.7822265625,786.5216674804688" style="fill:#8280dc;stroke:#8280dc;"></polygon><polygon stroke-linejoin="round" stroke-miterlimit="1" stroke-width="1" points="197.9718017578125,656.8764801025391 150.57073974609375,808.0890808105469 201.39739990234375,663.8503265380859" style="fill:#8affff;stroke:#8affff;"></polygon><polygon stroke-linejoin="round" stroke-miterlimit="1" stroke-width="1" points="130.2388916015625,485.0525140762329 197.9718017578125,656.8764801025391 201.39739990234375,663.8503265380859" style="fill:#94ffff;stroke:#94ffff;"></polygon><polygon stroke-linejoin="round" stroke-miterlimit="1" stroke-width="1" points="183.91595458984375,511.69804668426514 197.9718017578125,656.8764801025391 130.2388916015625,485.0525140762329" style="fill:#7c1462;stroke:#7c1462;"></polygon><polygon stroke-linejoin="round" stroke-miterlimit="1" stroke-width="1" points="331.87091064453125,346.21917724609375 183.91595458984375,511.69804668426514 130.2388916015625,485.0525140762329" style="fill:#7c1462;stroke:#7c1462;"></polygon><polygon stroke-linejoin="round" stroke-miterlimit="1" stroke-width="1" points="115.23944091796875,354.4416961669922 183.91595458984375,511.69804668426514 331.87091064453125,346.21917724609375" style="fill:#7f54aa;stroke:#7f54aa;"></polygon><polygon stroke-linejoin="round" stroke-miterlimit="1" stroke-width="1" points="343.07073974609375,207.16754150390625 115.23944091796875,354.4416961669922 331.87091064453125,346.21917724609375" style="fill:#7f57ae;stroke:#7f57ae;"></polygon><polygon stroke-linejoin="round" stroke-miterlimit="1" stroke-width="1" points="-18.597412109375,202.15689086914062 115.23944091796875,354.4416961669922 343.07073974609375,207.16754150390625" style="fill:#7f489d;stroke:#7f489d;"></polygon><polygon stroke-linejoin="round" stroke-miterlimit="1" stroke-width="1" points="297.8834228515625,54.401336669921875 -18.597412109375,202.15689086914062 343.07073974609375,207.16754150390625" style="fill:#7f4ba0;stroke:#7f4ba0;"></polygon><polygon stroke-linejoin="round" stroke-miterlimit="1" stroke-width="1" points="161.70318603515625,37.469573974609375 -18.597412109375,202.15689086914062 297.8834228515625,54.401336669921875" style="fill:#7e4195;stroke:#7e4195;"></polygon><polygon stroke-linejoin="round" stroke-miterlimit="1" stroke-width="1" points="264.6353759765625,-98.648193359375 161.70318603515625,37.469573974609375 297.8834228515625,54.401336669921875" style="fill:#7f469b;stroke:#7f469b;"></polygon><polygon stroke-linejoin="round" stroke-miterlimit="1" stroke-width="1" points="173.42828369140625,-113.37835693359375 161.70318603515625,37.469573974609375 264.6353759765625,-98.648193359375" style="fill:#8063bb;stroke:#8063bb;"></polygon><polygon stroke-linejoin="round" stroke-miterlimit="1" stroke-width="1" points="94.78369140625,938.184814453125 -11.131591796875,1095.1822509765625 186.107177734375,1092.01416015625" style="fill:#7f4fa5;stroke:#7f4fa5;"></polygon><polygon stroke-linejoin="round" stroke-miterlimit="1" stroke-width="1" points="-169.9625244140625,944.6155700683594 -11.131591796875,1095.1822509765625 94.78369140625,938.184814453125" style="fill:#7f4da2;stroke:#7f4da2;"></polygon><polygon stroke-linejoin="round" stroke-miterlimit="1" stroke-width="1" points="150.57073974609375,808.0890808105469 -169.9625244140625,944.6155700683594 94.78369140625,938.184814453125" style="fill:#7e3a8d;stroke:#7e3a8d;"></polygon><polygon stroke-linejoin="round" stroke-miterlimit="1" stroke-width="1" points="57.83526611328125,786.9520568847656 -169.9625244140625,944.6155700683594 150.57073974609375,808.0890808105469" style="fill:#7f479b;stroke:#7f479b;"></polygon><polygon stroke-linejoin="round" stroke-miterlimit="1" stroke-width="1" points="197.9718017578125,656.8764801025391 57.83526611328125,786.9520568847656 150.57073974609375,808.0890808105469" style="fill:#7e4195;stroke:#7e4195;"></polygon><polygon stroke-linejoin="round" stroke-miterlimit="1" stroke-width="1" points="28.22039794921875,637.0632476806641 57.83526611328125,786.9520568847656 197.9718017578125,656.8764801025391" style="fill:#7e4093;stroke:#7e4093;"></polygon><polygon stroke-linejoin="round" stroke-miterlimit="1" stroke-width="1" points="183.91595458984375,511.69804668426514 28.22039794921875,637.0632476806641 197.9718017578125,656.8764801025391" style="fill:#7e4195;stroke:#7e4195;"></polygon><polygon stroke-linejoin="round" stroke-miterlimit="1" stroke-width="1" points="-153.7064208984375,487.2810068130493 28.22039794921875,637.0632476806641 183.91595458984375,511.69804668426514" style="fill:#7e4499;stroke:#7e4499;"></polygon><polygon stroke-linejoin="round" stroke-miterlimit="1" stroke-width="1" points="115.23944091796875,354.4416961669922 -153.7064208984375,487.2810068130493 183.91595458984375,511.69804668426514" style="fill:#7f4ea3;stroke:#7f4ea3;"></polygon><polygon stroke-linejoin="round" stroke-miterlimit="1" stroke-width="1" points="15.1077880859375,364.8710632324219 -153.7064208984375,487.2810068130493 115.23944091796875,354.4416961669922" style="fill:#7f4da3;stroke:#7f4da3;"></polygon><polygon stroke-linejoin="round" stroke-miterlimit="1" stroke-width="1" points="-18.597412109375,202.15689086914062 15.1077880859375,364.8710632324219 115.23944091796875,354.4416961669922" style="fill:#7f51a7;stroke:#7f51a7;"></polygon><polygon stroke-linejoin="round" stroke-miterlimit="1" stroke-width="1" points="-23.46527099609375,186.25308227539062 15.1077880859375,364.8710632324219 -18.597412109375,202.15689086914062" style="fill:#7c1462;stroke:#7c1462;"></polygon><polygon stroke-linejoin="round" stroke-miterlimit="1" stroke-width="1" points="161.70318603515625,37.469573974609375 -23.46527099609375,186.25308227539062 -18.597412109375,202.15689086914062" style="fill:#7d2778;stroke:#7d2778;"></polygon><polygon stroke-linejoin="round" stroke-miterlimit="1" stroke-width="1" points="-63.80810546875,61.535675048828125 -23.46527099609375,186.25308227539062 161.70318603515625,37.469573974609375" style="fill:#7f4ba0;stroke:#7f4ba0;"></polygon><polygon stroke-linejoin="round" stroke-miterlimit="1" stroke-width="1" points="173.42828369140625,-113.37835693359375 -63.80810546875,61.535675048828125 161.70318603515625,37.469573974609375" style="fill:#7f50a6;stroke:#7f50a6;"></polygon><polygon stroke-linejoin="round" stroke-miterlimit="1" stroke-width="1" points="57.8743896484375,-108.1085205078125 -63.80810546875,61.535675048828125 173.42828369140625,-113.37835693359375" style="fill:#7e4296;stroke:#7e4296;"></polygon><polygon stroke-linejoin="round" stroke-miterlimit="1" stroke-width="1" points="-169.9625244140625,944.6155700683594 -80.0977783203125,1105.3483276367188 -11.131591796875,1095.1822509765625" style="fill:#7f4fa5;stroke:#7f4fa5;"></polygon><polygon stroke-linejoin="round" stroke-miterlimit="1" stroke-width="1" points="-182.5604248046875,964.6537780761719 -80.0977783203125,1105.3483276367188 -169.9625244140625,944.6155700683594" style="fill:#7c1462;stroke:#7c1462;"></polygon><polygon stroke-linejoin="round" stroke-miterlimit="1" stroke-width="1" points="57.83526611328125,786.9520568847656 -182.5604248046875,964.6537780761719 -169.9625244140625,944.6155700683594" style="fill:#7c1462;stroke:#7c1462;"></polygon><polygon stroke-linejoin="round" stroke-miterlimit="1" stroke-width="1" points="-122.71923828125,812.6169128417969 -182.5604248046875,964.6537780761719 57.83526611328125,786.9520568847656" style="fill:#7e4296;stroke:#7e4296;"></polygon><polygon stroke-linejoin="round" stroke-miterlimit="1" stroke-width="1" points="28.22039794921875,637.0632476806641 -122.71923828125,812.6169128417969 57.83526611328125,786.9520568847656" style="fill:#7f4ea3;stroke:#7f4ea3;"></polygon><polygon stroke-linejoin="round" stroke-miterlimit="1" stroke-width="1" points="-90.391357421875,663.4878845214844 -122.71923828125,812.6169128417969 28.22039794921875,637.0632476806641" style="fill:#805db4;stroke:#805db4;"></polygon><polygon stroke-linejoin="round" stroke-miterlimit="1" stroke-width="1" points="-153.7064208984375,487.2810068130493 -90.391357421875,663.4878845214844 28.22039794921875,637.0632476806641" style="fill:#8065bd;stroke:#8065bd;"></polygon><polygon stroke-linejoin="round" stroke-miterlimit="1" stroke-width="1" points="-264.3470458984375,485.4915246963501 -90.391357421875,663.4878845214844 -153.7064208984375,487.2810068130493" style="fill:#7e4397;stroke:#7e4397;"></polygon><polygon stroke-linejoin="round" stroke-miterlimit="1" stroke-width="1" points="15.1077880859375,364.8710632324219 -264.3470458984375,485.4915246963501 -153.7064208984375,487.2810068130493" style="fill:#7e4398;stroke:#7e4398;"></polygon><polygon stroke-linejoin="round" stroke-miterlimit="1" stroke-width="1" points="-206.8031005859375,339.2396697998047 -264.3470458984375,485.4915246963501 15.1077880859375,364.8710632324219" style="fill:#7e4296;stroke:#7e4296;"></polygon><polygon stroke-linejoin="round" stroke-miterlimit="1" stroke-width="1" points="-23.46527099609375,186.25308227539062 -206.8031005859375,339.2396697998047 15.1077880859375,364.8710632324219" style="fill:#7e4599;stroke:#7e4599;"></polygon><polygon stroke-linejoin="round" stroke-miterlimit="1" stroke-width="1" points="-252.007568359375,214.83883666992188 -206.8031005859375,339.2396697998047 -23.46527099609375,186.25308227539062" style="fill:#7e4397;stroke:#7e4397;"></polygon><polygon stroke-linejoin="round" stroke-miterlimit="1" stroke-width="1" points="-63.80810546875,61.535675048828125 -252.007568359375,214.83883666992188 -23.46527099609375,186.25308227539062" style="fill:#7e4499;stroke:#7e4499;"></polygon><polygon stroke-linejoin="round" stroke-miterlimit="1" stroke-width="1" points="-203.8955078125,58.397796630859375 -252.007568359375,214.83883666992188 -63.80810546875,61.535675048828125" style="fill:#7e4498;stroke:#7e4498;"></polygon><polygon stroke-linejoin="round" stroke-miterlimit="1" stroke-width="1" points="57.8743896484375,-108.1085205078125 -203.8955078125,58.397796630859375 -63.80810546875,61.535675048828125" style="fill:#7f489d;stroke:#7f489d;"></polygon><polygon stroke-linejoin="round" stroke-miterlimit="1" stroke-width="1" points="-279.676025390625,-89.0701904296875 -203.8955078125,58.397796630859375 57.8743896484375,-108.1085205078125" style="fill:#7f499d;stroke:#7f499d;"></polygon></svg>